<?xml version="1.0" encoding="utf-8"?>
<!-- Generator: Adobe Illustrator 26.3.1, SVG Export Plug-In . SVG Version: 6.00 Build 0)  -->
<svg version="1.1" id="Layer_1" xmlns="http://www.w3.org/2000/svg" xmlns:xlink="http://www.w3.org/1999/xlink" x="0px" y="0px"
	 viewBox="0 0 24 24" style="enable-background:new 0 0 24 24;" xml:space="preserve">
<style type="text/css">
	.st0{fill:#FC0000;}
</style>
<path class="st0" d="M5.8,20.7c-0.4,0-0.8-0.1-1.1-0.4c-0.3-0.3-0.4-0.6-0.4-1.1V6.8c0-0.4,0.1-0.8,0.4-1.1C5,5.4,5.4,5.3,5.8,5.3h2
	V3h0.8v2.3h6.9V3h0.7v2.3h2c0.4,0,0.8,0.1,1.1,0.4s0.4,0.6,0.4,1.1v12.4c0,0.4-0.1,0.8-0.4,1.1s-0.6,0.4-1.1,0.4H5.8z M5.8,20h12.4
	c0.2,0,0.4-0.1,0.5-0.2c0.2-0.2,0.2-0.4,0.2-0.5v-8.4H5v8.4c0,0.2,0.1,0.4,0.2,0.5C5.4,19.9,5.6,20,5.8,20z M5,10.1h14V6.8
	c0-0.2-0.1-0.4-0.2-0.6C18.6,6.1,18.4,6,18.2,6H5.8C5.6,6,5.4,6.1,5.2,6.2C5.1,6.4,5,6.6,5,6.8V10.1z M5,10.1V6V10.1z M12,14.2
	c-0.2,0-0.3-0.1-0.5-0.2s-0.2-0.3-0.2-0.5s0.1-0.3,0.2-0.5s0.3-0.2,0.5-0.2s0.3,0.1,0.5,0.2s0.2,0.3,0.2,0.5s-0.1,0.3-0.2,0.5
	S12.2,14.2,12,14.2z M8,14.2c-0.2,0-0.3-0.1-0.5-0.2s-0.2-0.3-0.2-0.5s0.1-0.3,0.2-0.5s0.3-0.2,0.5-0.2s0.3,0.1,0.5,0.2
	s0.2,0.3,0.2,0.5S8.6,13.8,8.5,14S8.2,14.2,8,14.2z M16,14.2c-0.2,0-0.3-0.1-0.5-0.2c-0.1-0.1-0.2-0.3-0.2-0.5s0.1-0.3,0.2-0.5
	c0.1-0.1,0.3-0.2,0.5-0.2s0.3,0.1,0.5,0.2c0.1,0.1,0.2,0.3,0.2,0.5s-0.1,0.3-0.2,0.5C16.3,14.1,16.2,14.2,16,14.2z M12,18
	c-0.2,0-0.3-0.1-0.5-0.2s-0.2-0.3-0.2-0.5c0-0.2,0.1-0.3,0.2-0.5s0.3-0.2,0.5-0.2s0.3,0.1,0.5,0.2s0.2,0.3,0.2,0.5
	c0,0.2-0.1,0.3-0.2,0.5S12.2,18,12,18z M8,18c-0.2,0-0.3-0.1-0.5-0.2s-0.2-0.3-0.2-0.5c0-0.2,0.1-0.3,0.2-0.5s0.3-0.2,0.5-0.2
	s0.3,0.1,0.5,0.2s0.2,0.3,0.2,0.5c0,0.2-0.1,0.3-0.2,0.5S8.2,18,8,18z M16,18c-0.2,0-0.3-0.1-0.5-0.2c-0.1-0.1-0.2-0.3-0.2-0.5
	c0-0.2,0.1-0.3,0.2-0.5c0.1-0.1,0.3-0.2,0.5-0.2s0.3,0.1,0.5,0.2c0.1,0.1,0.2,0.3,0.2,0.5c0,0.2-0.1,0.3-0.2,0.5
	C16.3,17.9,16.2,18,16,18z"/>
</svg>
